<svg width="48" height="48" viewBox="0 0 48 48" fill="none" xmlns="http://www.w3.org/2000/svg">
<circle cx="24" cy="24" r="24" fill="#F6F6F6"/>
<path fill-rule="evenodd" clip-rule="evenodd" d="M17.4723 28.096C17.5914 28.2155 17.6826 28.3598 17.7395 28.5186C17.7964 28.6774 17.8176 28.8468 17.8015 29.0148C17.7209 29.792 17.568 30.5601 17.345 31.3089C18.9451 30.9384 19.9225 30.5094 20.3664 30.2846C20.6182 30.1571 20.9081 30.1269 21.1808 30.1997C21.9625 30.4081 22.7681 30.513 23.5771 30.5117C28.1608 30.5117 31.6067 27.2919 31.6067 23.6292C31.6067 19.9677 28.1608 16.7467 23.5771 16.7467C18.9933 16.7467 15.5475 19.9677 15.5475 23.6292C15.5475 25.3131 16.2552 26.8755 17.4723 28.096ZM16.9068 32.5753C16.635 32.6292 16.3623 32.6785 16.0889 32.7233C15.8595 32.76 15.6851 32.5214 15.7757 32.3081C15.8776 32.0679 15.971 31.8241 16.0556 31.5774L16.0591 31.5659C16.3436 30.74 16.5753 29.7902 16.6601 28.9058C15.2527 27.4949 14.4004 25.6481 14.4004 23.6292C14.4004 19.1946 18.5093 15.5996 23.5771 15.5996C28.6449 15.5996 32.7538 19.1946 32.7538 23.6292C32.7538 28.0638 28.6449 31.6588 23.5771 31.6588C22.6682 31.66 21.7631 31.542 20.8849 31.3078C20.2884 31.6095 19.0048 32.1589 16.9068 32.5753Z" fill="#616061"/>
<path fill-rule="evenodd" clip-rule="evenodd" d="M18.9883 20.761C18.9883 20.6089 19.0487 20.463 19.1563 20.3555C19.2638 20.2479 19.4097 20.1875 19.5618 20.1875H27.5914C27.7435 20.1875 27.8894 20.2479 27.997 20.3555C28.1045 20.463 28.165 20.6089 28.165 20.761C28.165 20.9132 28.1045 21.059 27.997 21.1666C27.8894 21.2742 27.7435 21.3346 27.5914 21.3346H19.5618C19.4097 21.3346 19.2638 21.2742 19.1563 21.1666C19.0487 21.059 18.9883 20.9132 18.9883 20.761ZM18.9883 23.6288C18.9883 23.4766 19.0487 23.3308 19.1563 23.2232C19.2638 23.1156 19.4097 23.0552 19.5618 23.0552H27.5914C27.7435 23.0552 27.8894 23.1156 27.997 23.2232C28.1045 23.3308 28.165 23.4766 28.165 23.6288C28.165 23.7809 28.1045 23.9268 27.997 24.0343C27.8894 24.1419 27.7435 24.2023 27.5914 24.2023H19.5618C19.4097 24.2023 19.2638 24.1419 19.1563 24.0343C19.0487 23.9268 18.9883 23.7809 18.9883 23.6288ZM18.9883 26.4965C18.9883 26.3444 19.0487 26.1985 19.1563 26.0909C19.2638 25.9834 19.4097 25.9229 19.5618 25.9229H24.1502C24.3023 25.9229 24.4482 25.9834 24.5557 26.0909C24.6633 26.1985 24.7237 26.3444 24.7237 26.4965C24.7237 26.6486 24.6633 26.7945 24.5557 26.902C24.4482 27.0096 24.3023 27.07 24.1502 27.07H19.5618C19.4097 27.07 19.2638 27.0096 19.1563 26.902C19.0487 26.7945 18.9883 26.6486 18.9883 26.4965Z" fill="#616061"/>
</svg>
