<svg width="20" height="20" viewBox="0 0 20 20" fill="none" xmlns="http://www.w3.org/2000/svg">
<path fill-rule="evenodd" clip-rule="evenodd" d="M10 1.66667C9.77899 1.66667 9.56703 1.75446 9.41075 1.91074C9.25447 2.06703 9.16667 2.27899 9.16667 2.5V2.64499C9.16495 3.07566 9.03733 3.49644 8.79953 3.85551C8.56173 4.21459 8.22413 4.49629 7.82828 4.66595C7.75781 4.69615 7.68368 4.71641 7.60801 4.7263C7.24831 4.85226 6.8611 4.88331 6.48417 4.81497C6.05 4.73625 5.64938 4.52927 5.33395 4.22072L5.32738 4.21429L5.27741 4.16426C5.20002 4.08678 5.10778 4.02498 5.00662 3.98304C4.90545 3.94111 4.79701 3.91952 4.6875 3.91952C4.57799 3.91952 4.46955 3.94111 4.36838 3.98304C4.26722 4.02498 4.17531 4.08645 4.09792 4.16393C4.02044 4.24132 3.95832 4.33388 3.91638 4.43505C3.87444 4.53622 3.85286 4.64465 3.85286 4.75417C3.85286 4.86368 3.87444 4.97212 3.91638 5.07328C3.95832 5.17445 4.01978 5.26636 4.09726 5.34375L4.15409 5.40058C4.46264 5.71601 4.66958 6.11667 4.7483 6.55084C4.82546 6.97636 4.77594 7.41497 4.60621 7.81231C4.45157 8.21777 4.18082 8.56889 3.82754 8.82157C3.46712 9.07935 3.03748 9.22274 2.59449 9.23311L2.575 9.23333H2.5C2.27899 9.23333 2.06703 9.32113 1.91074 9.47741C1.75446 9.63369 1.66667 9.84565 1.66667 10.0667C1.66667 10.2877 1.75446 10.4996 1.91074 10.6559C2.06703 10.8122 2.27899 10.9 2.5 10.9H2.64499C3.07566 10.9017 3.49644 11.0293 3.85551 11.2671C4.21334 11.5041 4.49433 11.8402 4.66418 12.2343C4.8409 12.6369 4.89342 13.0831 4.81497 13.5158C4.73625 13.95 4.52927 14.3506 4.22072 14.6661L4.21429 14.6726L4.16425 14.7226C4.08677 14.8 4.02498 14.8922 3.98304 14.9934C3.94111 15.0946 3.91952 15.203 3.91952 15.3125C3.91952 15.422 3.94111 15.5305 3.98304 15.6316C4.02498 15.7328 4.08645 15.8247 4.16393 15.9021C4.24132 15.9796 4.33388 16.0417 4.43505 16.0836C4.53622 16.1256 4.64466 16.1471 4.75417 16.1471C4.86368 16.1471 4.97212 16.1256 5.07328 16.0836C5.17445 16.0417 5.26636 15.9802 5.34375 15.9027L5.40058 15.8459C5.71601 15.5374 6.11667 15.3304 6.55084 15.2517C6.97636 15.1745 7.41497 15.2241 7.81231 15.3938C8.21777 15.5484 8.56889 15.8192 8.82157 16.1725C9.07935 16.5329 9.22274 16.9625 9.23311 17.4055L9.23333 17.425V17.5C9.23333 17.721 9.32113 17.933 9.47741 18.0893C9.63369 18.2455 9.84565 18.3333 10.0667 18.3333C10.2877 18.3333 10.4996 18.2455 10.6559 18.0893C10.8122 17.933 10.9 17.721 10.9 17.5V17.3583L10.9 17.355C10.9017 16.9243 11.0293 16.5036 11.2671 16.1445C11.5041 15.7866 11.8402 15.5056 12.2344 15.3358C12.637 15.1591 13.0832 15.1066 13.5158 15.185C13.95 15.2638 14.3506 15.4707 14.6661 15.7793L14.6726 15.7857L14.7226 15.8357C14.8 15.9132 14.8922 15.975 14.9934 16.017C15.0946 16.0589 15.203 16.0805 15.3125 16.0805C15.422 16.0805 15.5305 16.0589 15.6316 16.017C15.7328 15.975 15.8247 15.9136 15.9021 15.8361C15.9796 15.7587 16.0417 15.6661 16.0836 15.565C16.1256 15.4638 16.1471 15.3553 16.1471 15.2458C16.1471 15.1363 16.1256 15.0279 16.0836 14.9267C16.0417 14.8256 15.9802 14.7336 15.9027 14.6562L15.8459 14.5994C15.5374 14.284 15.3304 13.8833 15.2517 13.4492C15.1732 13.0165 15.2258 12.5703 15.4024 12.1677C15.5723 11.7736 15.8533 11.4375 16.2112 11.2005C16.5702 10.9627 16.991 10.8351 17.4217 10.8333L17.425 10.8333L17.5 10.8333C17.721 10.8333 17.933 10.7455 18.0893 10.5893C18.2455 10.433 18.3333 10.221 18.3333 10C18.3333 9.77899 18.2455 9.56703 18.0893 9.41075C17.933 9.25447 17.721 9.16667 17.5 9.16667H17.3583L17.355 9.16666C16.9243 9.16494 16.5036 9.03733 16.1445 8.79953C15.7854 8.56174 15.5037 8.22413 15.3341 7.82828C15.3039 7.75781 15.2836 7.68368 15.2737 7.60801C15.1477 7.24831 15.1167 6.8611 15.185 6.48417C15.2638 6.05 15.4707 5.64938 15.7793 5.33395L15.7857 5.32738L15.8357 5.27741C15.9132 5.20002 15.975 5.10778 16.017 5.00662C16.0589 4.90545 16.0805 4.79701 16.0805 4.6875C16.0805 4.57799 16.0589 4.46955 16.017 4.36838C15.975 4.26722 15.9136 4.17531 15.8361 4.09792C15.7587 4.02044 15.6661 3.95831 15.565 3.91638C15.4638 3.87444 15.3553 3.85286 15.2458 3.85286C15.1363 3.85286 15.0279 3.87444 14.9267 3.91638C14.8256 3.95832 14.7336 4.01978 14.6562 4.09726L14.5994 4.15409C14.284 4.46264 13.8833 4.66958 13.4492 4.7483C13.0165 4.82676 12.5702 4.77423 12.1676 4.59751C11.7735 4.42767 11.4374 4.14667 11.2005 3.78885C10.9627 3.42977 10.8351 3.009 10.8333 2.57832L10.8333 2.575V2.5C10.8333 2.27899 10.7455 2.06703 10.5893 1.91074C10.433 1.75446 10.221 1.66667 10 1.66667ZM8.23223 0.732233C8.70107 0.263392 9.33696 0 10 0C10.663 0 11.2989 0.263392 11.7678 0.732233C12.2366 1.20107 12.5 1.83696 12.5 2.5V2.57292C12.5007 2.67812 12.5319 2.78087 12.59 2.8686C12.6484 2.95667 12.7312 3.02577 12.8283 3.06738L12.8365 3.0709C12.9355 3.1146 13.0453 3.12768 13.1518 3.10837C13.2571 3.08928 13.3544 3.0394 13.4314 2.96509L13.4771 2.91941C13.7093 2.68696 13.985 2.50257 14.2885 2.37676C14.592 2.25095 14.9173 2.18619 15.2458 2.18619C15.5744 2.18619 15.8997 2.25095 16.2032 2.37676C16.5067 2.50257 16.7824 2.68697 17.0146 2.91941C17.2467 3.15145 17.4309 3.42694 17.5566 3.73015C17.6824 4.03364 17.7471 4.35896 17.7471 4.6875C17.7471 5.01604 17.6824 5.34136 17.5566 5.64485C17.4308 5.9482 17.2465 6.22381 17.0143 6.45592L16.9683 6.50192C16.8939 6.5789 16.8441 6.67618 16.825 6.78152C16.8057 6.88801 16.8187 6.99785 16.8624 7.09686C16.8859 7.15023 16.9038 7.20577 16.9156 7.26256C16.9551 7.32066 17.0056 7.37082 17.0647 7.40996C17.1525 7.46806 17.2552 7.49934 17.3604 7.5H17.5C18.163 7.5 18.7989 7.76339 19.2678 8.23223C19.7366 8.70107 20 9.33696 20 10C20 10.663 19.7366 11.2989 19.2678 11.7678C18.7989 12.2366 18.163 12.5 17.5 12.5H17.4271C17.3219 12.5007 17.2191 12.5319 17.1314 12.59C17.0433 12.6484 16.9742 12.7312 16.9326 12.8283L16.9291 12.8365C16.8854 12.9355 16.8723 13.0453 16.8916 13.1518C16.9107 13.2571 16.9606 13.3544 17.0349 13.4314L17.0806 13.4771C17.3129 13.7092 17.4975 13.9851 17.6232 14.2885C17.7491 14.592 17.8138 14.9173 17.8138 15.2458C17.8138 15.5744 17.7491 15.8997 17.6232 16.2032C17.4974 16.5067 17.313 16.7824 17.0806 17.0146C16.8484 17.247 16.5733 17.4308 16.2699 17.5566C15.9664 17.6824 15.641 17.7471 15.3125 17.7471C14.984 17.7471 14.6586 17.6824 14.3551 17.5566C14.0518 17.4308 13.7762 17.2465 13.5441 17.0143L13.4981 16.9682C13.4211 16.8939 13.3238 16.8441 13.2185 16.825C13.112 16.8057 13.0022 16.8187 12.9031 16.8624L12.895 16.866C12.7979 16.9076 12.715 16.9767 12.6567 17.0647C12.5986 17.1525 12.5673 17.2552 12.5667 17.3604V17.5C12.5667 18.163 12.3033 18.7989 11.8344 19.2678C11.3656 19.7366 10.7297 20 10.0667 20C9.40362 20 8.76774 19.7366 8.2989 19.2678C7.83006 18.7989 7.56667 18.163 7.56667 17.5V17.437C7.56271 17.331 7.52772 17.2284 7.46595 17.142C7.40272 17.0536 7.31436 16.9863 7.21235 16.9488C7.19587 16.9427 7.17959 16.9361 7.16353 16.9291C7.06452 16.8854 6.95468 16.8723 6.84818 16.8916C6.74285 16.9107 6.64556 16.9606 6.56858 17.0349L6.52292 17.0806C6.2908 17.3129 6.01487 17.4975 5.71152 17.6232C5.40802 17.7491 5.08271 17.8138 4.75417 17.8138C4.42563 17.8138 4.10031 17.7491 3.79682 17.6232C3.49361 17.4976 3.21812 17.3134 2.98607 17.0813C2.75363 16.8491 2.56923 16.5733 2.44342 16.2699C2.31761 15.9664 2.25286 15.641 2.25286 15.3125C2.25286 14.984 2.31761 14.6586 2.44342 14.3551C2.56923 14.0517 2.75363 13.7759 2.98607 13.5437L3.03176 13.4981C3.10607 13.4211 3.15594 13.3238 3.17504 13.2185C3.19435 13.112 3.18131 13.0022 3.13761 12.9031L3.13401 12.895C3.09239 12.7979 3.02334 12.715 2.93526 12.6567C2.84753 12.5986 2.74479 12.5673 2.63958 12.5667H2.5C1.83696 12.5667 1.20107 12.3033 0.732233 11.8344C0.263392 11.3656 0 10.7297 0 10.0667C0 9.40363 0.263392 8.76774 0.732233 8.2989C1.20107 7.83006 1.83696 7.56667 2.5 7.56667H2.56303C2.66903 7.56271 2.7716 7.52772 2.85796 7.46595C2.94636 7.40272 3.0137 7.31436 3.05122 7.21235C3.05728 7.19587 3.06386 7.17959 3.07095 7.16353C3.11465 7.06451 3.12768 6.95468 3.10837 6.84818C3.08927 6.74285 3.0394 6.64557 2.96508 6.56859L2.91941 6.52292C2.68696 6.29073 2.50257 6.01501 2.37676 5.71152C2.25095 5.40802 2.18619 5.08271 2.18619 4.75417C2.18619 4.42563 2.25095 4.10031 2.37676 3.79682C2.50251 3.49346 2.68679 3.21786 2.91908 2.98574C3.15119 2.75346 3.4268 2.56917 3.73015 2.44342C4.03364 2.31761 4.35896 2.25286 4.6875 2.25286C5.01604 2.25286 5.34136 2.31761 5.64485 2.44342C5.94835 2.56923 6.22407 2.75363 6.45625 2.98607L6.50192 3.03175C6.5789 3.10607 6.67619 3.15594 6.78152 3.17504C6.88801 3.19435 6.99785 3.18131 7.09686 3.13761C7.15023 3.11406 7.20577 3.09624 7.26256 3.08435C7.32066 3.04491 7.37082 2.99436 7.40996 2.93526C7.46806 2.84753 7.49934 2.74479 7.5 2.63958V2.5C7.5 1.83696 7.76339 1.20107 8.23223 0.732233ZM10 8.33333C9.07953 8.33333 8.33333 9.07953 8.33333 10C8.33333 10.9205 9.07953 11.6667 10 11.6667C10.9205 11.6667 11.6667 10.9205 11.6667 10C11.6667 9.07953 10.9205 8.33333 10 8.33333ZM6.66667 10C6.66667 8.15905 8.15905 6.66667 10 6.66667C11.841 6.66667 13.3333 8.15905 13.3333 10C13.3333 11.841 11.841 13.3333 10 13.3333C8.15905 13.3333 6.66667 11.841 6.66667 10Z" fill="#999999"/>
</svg>
