<svg width="19" height="20" viewBox="0 0 19 20" fill="none" xmlns="http://www.w3.org/2000/svg">
<path fill-rule="evenodd" clip-rule="evenodd" d="M9.19922 2.00856C8.99922 2.00856 8.80919 2.09276 8.66919 2.24256C8.52919 2.39246 8.44922 2.59576 8.44922 2.80766V2.94676C8.44922 3.35976 8.32926 3.76325 8.11926 4.10765C7.90926 4.45195 7.59927 4.72216 7.24927 4.88486C7.17927 4.91376 7.11919 4.93326 7.04919 4.94266C6.71919 5.06346 6.36918 5.09326 6.03918 5.02776C5.64918 4.95226 5.27927 4.75376 4.99927 4.45786L4.98926 4.45166L4.94922 4.40366C4.87922 4.32936 4.79923 4.27016 4.70923 4.22996C4.60923 4.18966 4.51919 4.16896 4.41919 4.16896C4.31919 4.16896 4.21927 4.18966 4.12927 4.22996C4.03927 4.27016 3.95916 4.32905 3.88916 4.40335C3.81916 4.47765 3.75924 4.56636 3.71924 4.66336C3.68924 4.76046 3.66919 4.86436 3.66919 4.96946C3.66919 5.07446 3.68924 5.17846 3.71924 5.27546C3.75924 5.37246 3.81916 5.46065 3.88916 5.53485L3.93921 5.58936C4.21921 5.89186 4.39924 6.27606 4.46924 6.69246C4.53924 7.10056 4.49924 7.52116 4.34924 7.90216C4.20924 8.29106 3.95916 8.62776 3.63916 8.87006C3.31916 9.11726 2.92918 9.25476 2.53918 9.26476L2.51917 9.26496H2.44922C2.24922 9.26496 2.05919 9.34916 1.91919 9.49906C1.77919 9.64886 1.69922 9.85216 1.69922 10.0642C1.69922 10.2761 1.77919 10.4794 1.91919 10.6293C2.05919 10.7791 2.24922 10.8633 2.44922 10.8633H2.57922C2.96922 10.865 3.34919 10.9874 3.66919 11.2154C3.98919 11.4427 4.23917 11.765 4.39917 12.1429C4.55917 12.529 4.59917 12.9569 4.52917 13.3719C4.45917 13.7883 4.27927 14.1725 3.99927 14.475L3.98926 14.4813L3.94922 14.5292C3.87922 14.6034 3.81917 14.6919 3.77917 14.7889C3.74917 14.8859 3.72925 14.9899 3.72925 15.0949C3.72925 15.1999 3.74917 15.3039 3.77917 15.4009C3.81917 15.498 3.87922 15.5861 3.94922 15.6603C4.01922 15.7346 4.09921 15.7942 4.18921 15.8344C4.27921 15.8746 4.37925 15.8953 4.47925 15.8953C4.57925 15.8953 4.66917 15.8746 4.76917 15.8344C4.85917 15.7942 4.93928 15.7352 5.00928 15.6609L5.0592 15.6064C5.3392 15.3106 5.70924 15.1121 6.09924 15.0366C6.47924 14.9626 6.86925 15.0101 7.22925 15.1729C7.59925 15.3212 7.90916 15.5808 8.13916 15.9196C8.36916 16.2653 8.49928 16.6773 8.50928 17.1021V17.1208V17.1927C8.50928 17.4047 8.58925 17.6079 8.72925 17.7578C8.86925 17.9077 9.05928 17.9919 9.25928 17.9919C9.45928 17.9919 9.64918 17.9077 9.78918 17.7578C9.92918 17.6079 10.0093 17.4047 10.0093 17.1927V17.0569V17.0537C10.0093 16.6407 10.1292 16.2371 10.3392 15.8928C10.5492 15.5496 10.8592 15.2801 11.2092 15.1172C11.5692 14.9478 11.9693 14.8974 12.3593 14.9727C12.7493 15.0482 13.1192 15.2467 13.3992 15.5425L13.4092 15.5487L13.4492 15.5967C13.5192 15.671 13.5992 15.7303 13.6892 15.7705C13.7892 15.8107 13.8792 15.8314 13.9792 15.8314C14.0792 15.8314 14.1792 15.8107 14.2692 15.7705C14.3592 15.7303 14.4393 15.6713 14.5093 15.597C14.5793 15.5228 14.6392 15.434 14.6792 15.337C14.7092 15.24 14.7292 15.136 14.7292 15.031C14.7292 14.926 14.7092 14.822 14.6792 14.7249C14.6392 14.6279 14.5793 14.5398 14.5093 14.4656L14.4592 14.4111C14.1792 14.1086 13.9992 13.7243 13.9292 13.308C13.8592 12.893 13.8992 12.4651 14.0592 12.079C14.2192 11.7011 14.4692 11.3787 14.7892 11.1515C15.1092 10.9234 15.4893 10.801 15.8793 10.7994H15.9492C16.1492 10.7994 16.3392 10.7152 16.4792 10.5653C16.6192 10.4154 16.6992 10.2122 16.6992 10.0002C16.6992 9.78826 16.6192 9.58496 16.4792 9.43505C16.3392 9.28525 16.1492 9.20106 15.9492 9.20106H15.8192V9.20096C15.4292 9.19936 15.0492 9.07696 14.7292 8.84896C14.4092 8.62086 14.1493 8.29716 13.9993 7.91746C13.9693 7.84996 13.9592 7.77886 13.9492 7.70626C13.8292 7.36136 13.8093 6.98996 13.8693 6.62846C13.9393 6.21216 14.1192 5.82796 14.3992 5.52546L14.4092 5.51916L14.4492 5.47126C14.5192 5.39696 14.5793 5.30856 14.6193 5.21156C14.6493 5.11456 14.6692 5.01056 14.6692 4.90546C14.6692 4.80046 14.6493 4.69646 14.6193 4.59946C14.5793 4.50246 14.5192 4.41426 14.4492 4.34006C14.3792 4.26576 14.2992 4.20615 14.2092 4.16595C14.1192 4.12575 14.0192 4.10506 13.9192 4.10506C13.8192 4.10506 13.7293 4.12575 13.6293 4.16595C13.5393 4.20615 13.4592 4.26515 13.3892 4.33945L13.3392 4.39396C13.0592 4.68986 12.6892 4.88836 12.2992 4.96376C11.9092 5.03906 11.5092 4.98866 11.1492 4.81916C10.7992 4.65636 10.4892 4.38686 10.2792 4.04366C10.0692 3.69936 9.94922 3.29586 9.94922 2.88276V2.87966V2.80766C9.94922 2.59576 9.86925 2.39246 9.72925 2.24256C9.58925 2.09276 9.39922 2.00856 9.19922 2.00856ZM7.60925 1.11236C8.02925 0.662758 8.59922 0.410156 9.19922 0.410156C9.79922 0.410156 10.3692 0.662758 10.7892 1.11236C11.2092 1.56206 11.4492 2.17186 11.4492 2.80766V2.87766C11.4492 2.97846 11.4792 3.07706 11.5292 3.16116C11.5792 3.24566 11.6593 3.31186 11.7493 3.35176V3.35516C11.8393 3.39706 11.9392 3.40966 12.0392 3.39116C12.1292 3.37276 12.2192 3.32496 12.2892 3.25366L12.3292 3.20986C12.5392 2.98696 12.7892 2.81016 13.0592 2.68946C13.3292 2.56886 13.6292 2.50676 13.9192 2.50676C14.2192 2.50676 14.5092 2.56886 14.7792 2.68946C15.0592 2.81016 15.2993 2.98696 15.5093 3.20986C15.7193 3.43246 15.8893 3.69666 15.9993 3.98736C16.1093 4.27846 16.1692 4.59046 16.1692 4.90546C16.1692 5.22056 16.1093 5.53256 15.9993 5.82355C15.8893 6.11455 15.7193 6.37886 15.5093 6.60146L15.4692 6.64556C15.3992 6.71936 15.3592 6.81266 15.3392 6.91366C15.3292 7.01576 15.3393 7.12116 15.3793 7.21606C15.3993 7.26726 15.4092 7.32056 15.4192 7.37496C15.4592 7.43066 15.5092 7.47876 15.5592 7.51636C15.6392 7.57206 15.7292 7.60206 15.8192 7.60266H15.9492C16.5492 7.60266 17.1192 7.85526 17.5392 8.30486C17.9592 8.75456 18.1992 9.36436 18.1992 10.0002C18.1992 10.6361 17.9592 11.2459 17.5392 11.6955C17.1192 12.1451 16.5492 12.3977 15.9492 12.3977H15.8793C15.7893 12.3984 15.6993 12.4284 15.6193 12.4841C15.5393 12.54 15.4792 12.6194 15.4392 12.7125V12.7204C15.3992 12.8154 15.3892 12.9207 15.3992 13.0228C15.4192 13.1238 15.4592 13.2171 15.5292 13.2909L15.5692 13.3347C15.7792 13.5573 15.9492 13.822 16.0592 14.1129C16.1692 14.4039 16.2292 14.7159 16.2292 15.031C16.2292 15.346 16.1692 15.658 16.0592 15.9491C15.9492 16.2401 15.7792 16.5045 15.5692 16.7272C15.3592 16.9501 15.1192 17.1263 14.8392 17.247C14.5692 17.3676 14.2792 17.4297 13.9792 17.4297C13.6892 17.4297 13.3893 17.3676 13.1193 17.247C12.8493 17.1264 12.5992 16.9497 12.3892 16.7269L12.3492 16.6828C12.2792 16.6115 12.1892 16.5637 12.0992 16.5454C11.9992 16.5268 11.8992 16.5393 11.8092 16.5812V16.5847C11.7192 16.6246 11.6392 16.6908 11.5892 16.7753C11.5392 16.8594 11.5093 16.958 11.5093 17.0589V17.1927C11.5093 17.8286 11.2692 18.4384 10.8492 18.888C10.4292 19.3376 9.85928 19.5902 9.25928 19.5902C8.65928 19.5902 8.08919 19.3376 7.66919 18.888C7.24919 18.4384 7.00928 17.8286 7.00928 17.1927V17.1323C7.00928 17.0306 6.96919 16.9323 6.91919 16.8494C6.85919 16.7647 6.77921 16.7001 6.68921 16.6641C6.67921 16.6583 6.65917 16.652 6.64917 16.6452C6.55917 16.6033 6.45925 16.5908 6.35925 16.6093C6.26925 16.6276 6.17925 16.6754 6.10925 16.7467L6.06921 16.7905C5.85921 17.0133 5.60923 17.1903 5.33923 17.3109C5.06923 17.4316 4.76925 17.4937 4.47925 17.4937C4.17925 17.4937 3.88926 17.4316 3.61926 17.3109C3.33926 17.1904 3.09916 17.0138 2.88916 16.7911C2.67916 16.5685 2.50917 16.3041 2.39917 16.013C2.28917 15.722 2.22925 15.41 2.22925 15.0949C2.22925 14.7798 2.28917 14.4679 2.39917 14.1768C2.50917 13.8858 2.67916 13.6213 2.88916 13.3987L2.9292 13.3549C2.9992 13.281 3.0392 13.1878 3.0592 13.0867C3.0692 12.9846 3.05917 12.8793 3.01917 12.7843V12.7765C2.97917 12.6834 2.91923 12.6039 2.83923 12.548C2.75923 12.4923 2.66922 12.4623 2.57922 12.4617H2.44922C1.84922 12.4617 1.27925 12.2091 0.859253 11.7594C0.439253 11.3098 0.199219 10.7 0.199219 10.0642C0.199219 9.42826 0.439253 8.81845 0.859253 8.36885C1.27925 7.91915 1.84922 7.66666 2.44922 7.66666H2.50928C2.59928 7.66286 2.68917 7.62926 2.76917 7.57006C2.84916 7.50936 2.90922 7.42465 2.94922 7.32685C2.94922 7.31105 2.95923 7.29546 2.95923 7.27996C2.99923 7.18506 3.00927 7.07976 2.99927 6.97756C2.97927 6.87656 2.93926 6.78326 2.86926 6.70946L2.82922 6.66566C2.61922 6.44296 2.44923 6.17856 2.33923 5.88756C2.22923 5.59646 2.16919 5.28446 2.16919 4.96946C2.16919 4.65436 2.22923 4.34236 2.33923 4.05136C2.44923 3.76046 2.61922 3.49616 2.82922 3.27356C3.03922 3.05076 3.2792 2.87406 3.5592 2.75346C3.8292 2.63276 4.11919 2.57066 4.41919 2.57066C4.70919 2.57066 5.00917 2.63276 5.27917 2.75346C5.54917 2.87406 5.79928 3.05096 6.00928 3.27386L6.04919 3.31766C6.11919 3.38886 6.20919 3.43676 6.29919 3.45506C6.39919 3.47356 6.49923 3.46106 6.58923 3.41916C6.63923 3.39656 6.68926 3.37946 6.73926 3.36806C6.78926 3.33026 6.82926 3.28176 6.86926 3.22506C6.91926 3.14096 6.94922 3.04245 6.94922 2.94156V2.80766C6.94922 2.17186 7.18925 1.56206 7.60925 1.11236ZM9.19922 8.40186C8.36922 8.40186 7.69922 9.11746 7.69922 10.0002C7.69922 10.883 8.36922 11.5986 9.19922 11.5986C10.0292 11.5986 10.6992 10.883 10.6992 10.0002C10.6992 9.11746 10.0292 8.40186 9.19922 8.40186ZM6.19922 10.0002C6.19922 8.23476 7.53922 6.80355 9.19922 6.80355C10.8592 6.80355 12.1992 8.23476 12.1992 10.0002C12.1992 11.7657 10.8592 13.1969 9.19922 13.1969C7.53922 13.1969 6.19922 11.7657 6.19922 10.0002Z" fill="#999999"/>
</svg>
