<svg width="16" height="16" viewBox="0 0 16 16" fill="none" xmlns="http://www.w3.org/2000/svg">
<path d="M6.63327 12.1958L4.74783 14.0812C3.96616 14.8629 2.70031 14.8629 1.9193 14.0814C1.13814 13.3002 1.13814 12.0342 1.91915 11.2532L5.69069 7.48168C6.4717 6.70064 7.73767 6.70064 8.51868 7.48168C8.77904 7.74204 9.20118 7.74204 9.46154 7.48168C9.7219 7.22132 9.7219 6.79917 9.46154 6.53882C8.15978 5.23706 6.04958 5.23706 4.74783 6.53882L0.976316 10.3103C-0.325439 11.6121 -0.325439 13.7223 0.976316 15.024C2.27792 16.3265 4.38828 16.3265 5.69072 15.024L7.57616 13.1386C7.83652 12.8782 7.83652 12.4561 7.57616 12.1957C7.3158 11.9354 6.89362 11.9354 6.63327 12.1958Z" fill="#666566"/>
<path d="M15.0245 0.976316C13.7227 -0.325439 11.6118 -0.325439 10.3101 0.976316L8.04796 3.23843C7.78761 3.49879 7.78761 3.92094 8.04796 4.1813C8.30832 4.44165 8.73047 4.44165 8.99083 4.1813L11.2529 1.91918C12.034 1.13814 13.3006 1.13814 14.0816 1.91918C14.8626 2.70019 14.8626 3.96616 14.0816 4.74717L9.93341 8.89542C9.15237 9.67646 7.88642 9.67646 7.10541 8.89542C6.84506 8.63506 6.42291 8.63506 6.16255 8.89542C5.9022 9.15577 5.9022 9.57792 6.16255 9.83828C7.46431 11.14 9.57451 11.14 10.8763 9.83828L15.0245 5.69006C16.3262 4.38831 16.3262 2.27807 15.0245 0.976316Z" fill="#666566"/>
</svg>