<svg width="11" height="11" viewBox="0 0 11 11" fill="none" xmlns="http://www.w3.org/2000/svg">
<path d="M10.0245 0.976316C8.72273 -0.325439 6.61184 -0.325439 5.31008 0.976316L3.04796 3.23843C2.78761 3.49879 2.78761 3.92094 3.04796 4.1813C3.30832 4.44165 3.73047 4.44165 3.99083 4.1813L6.25294 1.91918C7.03395 1.13814 8.30058 1.13814 9.08162 1.91918C9.86263 2.70019 9.86263 3.96616 9.08162 4.74717L4.93341 8.89542C4.15237 9.67646 2.88642 9.67646 2.10541 8.89542C1.84506 8.63506 1.42291 8.63506 1.16255 8.89542C0.902196 9.15577 0.902196 9.57792 1.16255 9.83828C2.46431 11.14 4.57451 11.14 5.87627 9.83828L10.0245 5.69006C11.3262 4.38831 11.3262 2.27807 10.0245 0.976316Z" fill="#666566"/>
<path d="M6.63327 7.19577L4.74783 9.08121C3.96616 9.86288 2.70031 9.86288 1.9193 9.08137C1.13814 8.3002 1.13814 7.03423 1.91915 6.25322L5.69069 2.48168C6.4717 1.70064 7.73767 1.70064 8.51868 2.48168C8.77904 2.74204 9.20118 2.74204 9.46154 2.48168C9.7219 2.22132 9.7219 1.79917 9.46154 1.53882C8.15978 0.237061 6.04958 0.237061 4.74783 1.53882L0.976316 5.31033C-0.325439 6.61208 -0.325439 8.72228 0.976316 10.024C2.27792 11.3265 4.38828 11.3265 5.69072 10.024L7.57616 8.1386C7.83652 7.87824 7.83652 7.45609 7.57616 7.19574C7.3158 6.93538 6.89362 6.93541 6.63327 7.19577Z" fill="#666566"/>
</svg>
