<svg width="12" height="12" viewBox="0 0 12 12" fill="none" xmlns="http://www.w3.org/2000/svg">
<path d="M5.0151 0.585938C4.96171 0.585843 4.90883 0.59627 4.85948 0.616625C4.81013 0.636979 4.76527 0.666862 4.72747 0.704563L0.705597 4.72644C0.629437 4.80262 0.586653 4.90593 0.586653 5.01366C0.586653 5.12138 0.629437 5.22469 0.705597 5.30088C1.0956 5.69088 1.5766 5.77863 1.92678 5.77863C2.0706 5.77863 2.19897 5.764 2.30054 5.74694L4.84691 8.29331C4.77988 8.5634 4.73638 8.83878 4.71691 9.11637C4.67953 9.68675 4.74291 10.4871 5.30191 11.0461C5.37809 11.1222 5.48141 11.165 5.58913 11.165C5.69685 11.165 5.80016 11.1222 5.87635 11.0461L8.17491 8.74831L10.7603 11.3337C10.9187 11.4921 11.7507 12.0666 11.9092 11.9081C12.0676 11.7497 11.4932 10.9169 11.3347 10.7593L8.74935 8.17388L11.0471 5.87531C11.1233 5.79913 11.166 5.69582 11.166 5.58809C11.166 5.48037 11.1233 5.37706 11.0471 5.30088C10.4881 4.74188 9.68779 4.67769 9.11741 4.71588C8.83981 4.73533 8.56443 4.77882 8.29435 4.84588L5.74797 2.30031C5.76923 2.17658 5.7801 2.05129 5.78047 1.92575C5.78047 1.57638 5.69272 1.09538 5.30191 0.704563C5.22577 0.62862 5.12263 0.585961 5.0151 0.585938Z" fill="#1D1C1D"/>
</svg>
