<svg width="48" height="48" viewBox="0 0 48 48" fill="none" xmlns="http://www.w3.org/2000/svg">
<circle cx="24" cy="24" r="24" fill="#F6F6F6"/>
<path d="M20.2587 14.3654C19.9636 14.5319 19.8594 14.9061 20.0259 15.2011C20.1924 15.4962 20.5665 15.6004 20.8616 15.4339L20.2587 14.3654ZM31.0001 20.9997L30.3867 20.9994V20.9997H31.0001ZM30.3867 24.9997C30.3867 25.3385 30.6613 25.6131 31.0001 25.6131C31.3389 25.6131 31.6136 25.3385 31.6136 24.9997H30.3867ZM29 29.6131C29.3388 29.6131 29.6135 29.3385 29.6135 28.9997C29.6135 28.6609 29.3388 28.3862 29 28.3862V29.6131ZM14 28.3862C13.6612 28.3862 13.3865 28.6609 13.3865 28.9997C13.3865 29.3385 13.6612 29.6131 14 29.6131V28.3862ZM17 20.9997H17.6135L17.6135 20.9989L17 20.9997ZM18.3251 18.0611C18.4805 17.76 18.3625 17.39 18.0614 17.2346C17.7604 17.0791 17.3903 17.1972 17.2349 17.4983L18.3251 18.0611ZM26.2606 33.3074C26.4306 33.0144 26.3308 32.639 26.0378 32.469C25.7447 32.299 25.3693 32.3987 25.1993 32.6918L26.2606 33.3074ZM22.8006 32.6918C22.6306 32.3987 22.2552 32.299 21.9621 32.469C21.6691 32.639 21.5693 33.0144 21.7393 33.3074L22.8006 32.6918ZM20.8616 15.4339C22.8395 14.3179 25.2612 14.3361 27.2221 15.4818L27.841 14.4225C25.5035 13.0567 22.6165 13.0349 20.2587 14.3654L20.8616 15.4339ZM27.2221 15.4818C29.1829 16.6275 30.3878 18.7283 30.3867 20.9994L31.6136 21C31.615 18.2927 30.1786 15.7883 27.841 14.4225L27.2221 15.4818ZM30.3867 20.9997V24.9997H31.6136V20.9997H30.3867ZM29 28.3862H14V29.6131H29V28.3862ZM14 29.6131C15.9957 29.6131 17.6135 27.9953 17.6135 25.9997H16.3865C16.3865 27.3177 15.318 28.3862 14 28.3862V29.6131ZM17.6135 25.9997V20.9997H16.3865V25.9997H17.6135ZM17.6135 20.9989C17.6122 19.9768 17.8562 18.9693 18.3251 18.0611L17.2349 17.4983C16.6759 18.5809 16.385 19.782 16.3865 21.0004L17.6135 20.9989ZM25.1993 32.6918C24.9513 33.1194 24.4943 33.3826 24 33.3826V34.6096C24.9318 34.6096 25.7931 34.1134 26.2606 33.3074L25.1993 32.6918ZM24 33.3826C23.5056 33.3826 23.0487 33.1194 22.8006 32.6918L21.7393 33.3074C22.2069 34.1134 23.0682 34.6096 24 34.6096V33.3826Z" fill="#616061"/>
<path d="M13 13L35 35" stroke="#616061" stroke-width="1.22693" stroke-linecap="round" stroke-linejoin="round"/>
</svg>
