<svg width="11" height="15" viewBox="0 0 11 15" fill="none" xmlns="http://www.w3.org/2000/svg">
<path d="M5.12 8.03C5.66 8.03 6.13333 7.96 6.54 7.82C6.95333 7.68 7.29667 7.48333 7.57 7.23C7.85 6.97 8.06 6.66333 8.2 6.31C8.34 5.95 8.41 5.55333 8.41 5.12C8.41 4.24667 8.13667 3.56 7.59 3.06C7.05 2.56 6.22667 2.31 5.12 2.31H2.9V8.03H5.12ZM5.12 0.639999C6.04 0.639999 6.84 0.746666 7.52 0.96C8.2 1.17333 8.76333 1.47667 9.21 1.87C9.65667 2.25667 9.98667 2.72667 10.2 3.28C10.42 3.83333 10.53 4.44667 10.53 5.12C10.53 5.79333 10.4133 6.41333 10.18 6.98C9.94667 7.54 9.60333 8.02333 9.15 8.43C8.69667 8.83667 8.13 9.15333 7.45 9.38C6.77667 9.6 6 9.71 5.12 9.71H2.9V15H0.77V0.639999H5.12Z" fill="#999999"/>
</svg>
