<svg width="20" height="20" viewBox="0 0 20 20" fill="none" xmlns="http://www.w3.org/2000/svg">
<path fill-rule="evenodd" clip-rule="evenodd" d="M4.55991 13.4136C4.65913 13.5132 4.73516 13.6335 4.78258 13.7658C4.83 13.8982 4.84765 14.0394 4.83426 14.1793C4.76708 14.827 4.63971 15.467 4.45381 16.0911C5.7873 15.7824 6.60173 15.4249 6.97166 15.2375C7.18149 15.1312 7.42312 15.106 7.65035 15.1668C8.30174 15.3404 8.9731 15.4278 9.64724 15.4268C13.467 15.4268 16.3386 12.7435 16.3386 9.69134C16.3386 6.64009 13.467 3.95591 9.64724 3.95591C5.82744 3.95591 2.9559 6.64009 2.9559 9.69134C2.9559 11.0946 3.5457 12.3965 4.55991 13.4136ZM4.08865 17.1464C3.86217 17.1913 3.63495 17.2324 3.40709 17.2698C3.21591 17.3003 3.07061 17.1015 3.14613 16.9237C3.23101 16.7235 3.3088 16.5204 3.37937 16.3148L3.38224 16.3052C3.6193 15.617 3.8124 14.8255 3.88313 14.0885C2.71024 12.9127 2 11.3737 2 9.69134C2 5.99581 5.42405 3 9.64724 3C13.8704 3 17.2945 5.99581 17.2945 9.69134C17.2945 13.3869 13.8704 16.3827 9.64724 16.3827C8.88983 16.3837 8.13556 16.2853 7.40373 16.0902C6.90666 16.3416 5.837 16.7994 4.08865 17.1464Z" fill="#3A3A3A"/>
<path fill-rule="evenodd" clip-rule="evenodd" d="M5.82422 7.30217C5.82422 7.17541 5.87457 7.05384 5.96421 6.96421C6.05384 6.87457 6.17541 6.82422 6.30217 6.82422H12.9935C13.1203 6.82422 13.2418 6.87457 13.3315 6.96421C13.4211 7.05384 13.4715 7.17541 13.4715 7.30217C13.4715 7.42893 13.4211 7.5505 13.3315 7.64013C13.2418 7.72977 13.1203 7.78012 12.9935 7.78012H6.30217C6.17541 7.78012 6.05384 7.72977 5.96421 7.64013C5.87457 7.5505 5.82422 7.42893 5.82422 7.30217ZM5.82422 9.69193C5.82422 9.56517 5.87457 9.4436 5.96421 9.35397C6.05384 9.26434 6.17541 9.21398 6.30217 9.21398H12.9935C13.1203 9.21398 13.2418 9.26434 13.3315 9.35397C13.4211 9.4436 13.4715 9.56517 13.4715 9.69193C13.4715 9.81869 13.4211 9.94026 13.3315 10.0299C13.2418 10.1195 13.1203 10.1699 12.9935 10.1699H6.30217C6.17541 10.1699 6.05384 10.1195 5.96421 10.0299C5.87457 9.94026 5.82422 9.81869 5.82422 9.69193ZM5.82422 12.0817C5.82422 11.9549 5.87457 11.8334 5.96421 11.7437C6.05384 11.6541 6.17541 11.6037 6.30217 11.6037H10.1258C10.2526 11.6037 10.3741 11.6541 10.4638 11.7437C10.5534 11.8334 10.6037 11.9549 10.6037 12.0817C10.6037 12.2085 10.5534 12.33 10.4638 12.4197C10.3741 12.5093 10.2526 12.5596 10.1258 12.5596H6.30217C6.17541 12.5596 6.05384 12.5093 5.96421 12.4197C5.87457 12.33 5.82422 12.2085 5.82422 12.0817Z" fill="#3A3A3A"/>
</svg>
