<svg width="20" height="20" viewBox="0 0 20 20" fill="none" xmlns="http://www.w3.org/2000/svg">
<path d="M8.33398 10.833C9.05811 11.8011 10.167 12.4069 11.3729 12.4933C12.5787 12.5796 13.7626 12.138 14.6173 11.283L17.1173 8.78298C18.6964 7.14807 18.6738 4.54929 17.0666 2.94207C15.4593 1.33484 12.8606 1.31226 11.2257 2.89131L9.79232 4.31631" stroke="#3A3A3A" stroke-width="1.22693" stroke-linecap="round" stroke-linejoin="round"/>
<path d="M11.6659 9.16703C10.9417 8.19895 9.83283 7.59311 8.62698 7.50675C7.42113 7.42039 6.23722 7.86202 5.38252 8.71703L2.88252 11.217C1.30347 12.8519 1.32606 15.4507 2.93328 17.0579C4.5405 18.6652 7.13928 18.6877 8.77419 17.1087L10.1992 15.6837" stroke="#3A3A3A" stroke-width="1.22693" stroke-linecap="round" stroke-linejoin="round"/>
</svg>
